<svg xmlns="http://www.w3.org/2000/svg" xmlns:xlink="http://www.w3.org/1999/xlink" width="2000" zoomAndPan="magnify" viewBox="0 0 1500 1499.999933" height="2000" preserveAspectRatio="xMidYMid meet" version="1.0"><defs><g/><clipPath id="fb3d3d3340"><rect x="0" width="716" y="0" height="1500"/></clipPath><clipPath id="527db18ec5"><path d="M 769.089844 243.257812 L 950.949219 243.257812 L 950.949219 425.117188 L 769.089844 425.117188 Z M 769.089844 243.257812 " clip-rule="nonzero"/></clipPath><clipPath id="ae9b506de6"><path d="M 860.019531 243.257812 C 809.800781 243.257812 769.089844 283.96875 769.089844 334.1875 C 769.089844 384.40625 809.800781 425.117188 860.019531 425.117188 C 910.238281 425.117188 950.949219 384.40625 950.949219 334.1875 C 950.949219 283.96875 910.238281 243.257812 860.019531 243.257812 Z M 860.019531 243.257812 " clip-rule="nonzero"/></clipPath><clipPath id="77fbda26f4"><path d="M 0.0898438 0.257812 L 181.949219 0.257812 L 181.949219 182.117188 L 0.0898438 182.117188 Z M 0.0898438 0.257812 " clip-rule="nonzero"/></clipPath><clipPath id="17859fea33"><path d="M 91.019531 0.257812 C 40.800781 0.257812 0.0898438 40.96875 0.0898438 91.1875 C 0.0898438 141.40625 40.800781 182.117188 91.019531 182.117188 C 141.238281 182.117188 181.949219 141.40625 181.949219 91.1875 C 181.949219 40.96875 141.238281 0.257812 91.019531 0.257812 Z M 91.019531 0.257812 " clip-rule="nonzero"/></clipPath><clipPath id="c67aefd181"><rect x="0" width="182" y="0" height="183"/></clipPath><clipPath id="ac99129459"><path d="M 0.320312 704 L 1414.160156 704 L 1414.160156 1372 L 0.320312 1372 Z M 0.320312 704 " clip-rule="nonzero"/></clipPath><clipPath id="878c1475ad"><rect x="0" width="1415" y="0" height="668"/></clipPath><clipPath id="76bbd944e0"><rect x="0" width="1415" y="0" height="1500"/></clipPath><clipPath id="f20221f151"><path d="M 367.21875 494.53125 L 723.175781 494.53125 L 723.175781 875 L 367.21875 875 Z M 367.21875 494.53125 " clip-rule="nonzero"/></clipPath><clipPath id="46d32b7061"><path d="M 545.195312 494.53125 C 446.902344 494.53125 367.21875 579.601562 367.21875 684.542969 C 367.21875 789.484375 446.902344 874.554688 545.195312 874.554688 C 643.492188 874.554688 723.175781 789.484375 723.175781 684.542969 C 723.175781 579.601562 643.492188 494.53125 545.195312 494.53125 Z M 545.195312 494.53125 " clip-rule="nonzero"/></clipPath><clipPath id="493e82207a"><path d="M 0.21875 0.53125 L 356.175781 0.53125 L 356.175781 380.558594 L 0.21875 380.558594 Z M 0.21875 0.53125 " clip-rule="nonzero"/></clipPath><clipPath id="14837fbe66"><path d="M 178.195312 0.53125 C 79.902344 0.53125 0.21875 85.601562 0.21875 190.542969 C 0.21875 295.484375 79.902344 380.554688 178.195312 380.554688 C 276.492188 380.554688 356.175781 295.484375 356.175781 190.542969 C 356.175781 85.601562 276.492188 0.53125 178.195312 0.53125 Z M 178.195312 0.53125 " clip-rule="nonzero"/></clipPath><clipPath id="25f2864eac"><rect x="0" width="357" y="0" height="381"/></clipPath></defs><rect x="-150" width="1800" fill="#ffffff" y="-149.999993" height="1799.99992" fill-opacity="1"/><rect x="-150" width="1800" fill="#ebf3f2" y="-149.999993" height="1799.99992" fill-opacity="1"/><g transform="matrix(1, 0, 0, 1, 16, 0.000000000000112861)"><g clip-path="url(#76bbd944e0)"><g transform="matrix(1, 0, 0, 1, 477, 0.000000000000112861)"><g clip-path="url(#fb3d3d3340)"><g fill="#3d3f3f" fill-opacity="1"><g transform="translate(4.848755, 1072.042751)"><g><path d="M 152.75 -341.4375 C 108.25 -283.25 86 -220.351562 86 -152.75 C 86 -72.3125 119.800781 -9.84375 187.40625 34.65625 C 226.769531 61.1875 271.476562 74.453125 321.53125 74.453125 C 371.59375 74.453125 415.023438 64.609375 451.828125 44.921875 C 521.140625 8.984375 560.070312 -51.34375 568.625 -136.0625 C 569.488281 -142.050781 569.921875 -148.039062 569.921875 -154.03125 C 569.921875 -185.695312 561.144531 -219.925781 543.59375 -256.71875 C 526.050781 -293.507812 497.601562 -327.3125 458.25 -358.125 L 227.203125 -540.390625 C 176.710938 -579.753906 151.46875 -630.671875 151.46875 -693.140625 C 151.46875 -755.609375 171.578125 -808.445312 211.796875 -851.65625 C 252.015625 -894.875 306.351562 -916.484375 374.8125 -916.484375 C 409.039062 -916.484375 446.265625 -912.207031 486.484375 -903.65625 L 537.828125 -903.65625 L 540.390625 -745.765625 L 527.5625 -745.765625 C 526.695312 -786.835938 511.929688 -819.140625 483.265625 -842.671875 C 454.597656 -866.210938 418.65625 -877.984375 375.4375 -877.984375 C 332.226562 -877.984375 296.078125 -863.648438 266.984375 -834.984375 C 237.890625 -806.316406 223.34375 -769.519531 223.34375 -724.59375 C 223.34375 -679.664062 242.171875 -642.226562 279.828125 -612.28125 L 517.28125 -424.875 C 611.414062 -350.425781 658.484375 -260.570312 658.484375 -155.3125 C 658.484375 -76.582031 627.25 -8.976562 564.78125 47.5 C 510.875 96.269531 438.992188 120.65625 349.140625 120.65625 C 294.367188 120.65625 245.59375 110.382812 202.8125 89.84375 C 122.375 52.195312 74.023438 -11.976562 57.765625 -102.6875 C 55.191406 -116.375 53.90625 -133.703125 53.90625 -154.671875 C 53.90625 -175.640625 59.894531 -204.304688 71.875 -240.671875 C 83.851562 -277.035156 106.957031 -313.617188 141.1875 -350.421875 Z M 152.75 -341.4375 "/></g></g></g></g></g><g clip-path="url(#527db18ec5)"><g clip-path="url(#ae9b506de6)"><g transform="matrix(1, 0, 0, 1, 769, 243)"><g clip-path="url(#c67aefd181)"><g clip-path="url(#77fbda26f4)"><g clip-path="url(#17859fea33)"><path fill="#3d3f3f" d="M 0.0898438 0.257812 L 181.949219 0.257812 L 181.949219 182.117188 L 0.0898438 182.117188 Z M 0.0898438 0.257812 " fill-opacity="1" fill-rule="nonzero"/></g></g></g></g></g></g><g clip-path="url(#ac99129459)"><g transform="matrix(1, 0, 0, 1, 0, 704)"><g clip-path="url(#878c1475ad)"><g fill="#ebf3f2" fill-opacity="1"><g transform="translate(1023.492746, 625.106915)"><g><path d="M -429.242188 -442.859375 C -411.746094 -426.285156 -398.792969 -407.257812 -390.386719 -385.769531 L -426.929688 -371.472656 L -465.777344 -377.019531 C -454.691406 -454.628906 -426.351562 -514.382812 -380.757812 -556.277344 C -334.535156 -598.753906 -278.421875 -619.992188 -212.417969 -619.992188 C -131.871094 -619.992188 -66.742188 -587.679688 -17.03125 -523.058594 C 30.25 -461.59375 53.890625 -382.113281 53.890625 -284.621094 C 53.890625 -186.253906 28.890625 -108.269531 -21.117188 -50.664062 C -72.539062 8.574219 -143.980469 38.195312 -235.4375 38.195312 L -280.746094 38.195312 L -296.050781 -45.980469 L -255.308594 -51.449219 C -166.164062 -63.414062 -109.152344 -98.800781 -84.273438 -157.601562 L -48.132812 -142.308594 L -48.132812 -103.070312 L -657.136719 -103.070312 L -657.136719 -142.308594 L -654.238281 -103.175781 C -662.964844 -102.527344 -669.953125 -99.433594 -675.195312 -93.890625 C -680.246094 -88.550781 -682.773438 -82.019531 -682.773438 -74.292969 L -682.773438 -22.496094 L -771.71875 -22.496094 L -771.71875 -237.53125 C -771.71875 -311.929688 -754.050781 -372.34375 -718.710938 -418.78125 C -680.859375 -468.511719 -631.210938 -493.378906 -569.761719 -493.378906 C -510.640625 -493.378906 -463.667969 -476.410156 -428.84375 -442.480469 Z M -483.613281 -386.265625 C -503.203125 -405.351562 -531.917969 -414.894531 -569.761719 -414.894531 C -605.28125 -414.894531 -634.113281 -400.347656 -656.257812 -371.25 C -680.910156 -338.855469 -693.238281 -294.285156 -693.238281 -237.53125 L -693.238281 -61.738281 L -732.476562 -61.738281 L -732.476562 -100.980469 L -722.015625 -100.980469 L -722.015625 -61.738281 L -761.253906 -61.738281 L -761.253906 -74.292969 C -761.253906 -102.84375 -751.574219 -127.355469 -732.210938 -147.824219 C -713.035156 -168.09375 -688.980469 -179.300781 -660.035156 -181.445312 L -658.589844 -181.550781 L 11.078125 -181.550781 L -11.992188 -127.019531 C -30.492188 -83.296875 -59.972656 -48.441406 -100.433594 -22.445312 C -138.984375 2.324219 -187.132812 18.585938 -244.867188 26.335938 L -250.089844 -12.558594 L -211.480469 -19.578125 L -209.386719 -8.066406 L -247.996094 -1.046875 L -247.996094 -40.289062 L -235.4375 -40.289062 C -167.847656 -40.289062 -116.160156 -60.894531 -80.382812 -102.109375 C -43.1875 -144.960938 -24.59375 -205.796875 -24.59375 -284.621094 C -24.59375 -364.316406 -42.808594 -427.84375 -79.238281 -475.207031 C -113.238281 -519.40625 -157.632812 -541.507812 -212.417969 -541.507812 C -258.03125 -541.507812 -296.445312 -527.167969 -327.652344 -498.488281 C -359.492188 -469.230469 -379.636719 -425.042969 -388.082031 -365.921875 L -409.160156 -218.375 L -463.472656 -357.171875 C -467.621094 -367.777344 -474.203125 -377.347656 -483.21875 -385.886719 Z M -698.992188 -249.566406 L -29.300781 -249.566406 L -29.300781 -210.324219 L -68.097656 -216.203125 C -64.90625 -237.277344 -63.308594 -261.824219 -63.308594 -289.851562 C -63.308594 -346.277344 -77.613281 -389.351562 -106.226562 -419.074219 C -134.4375 -448.378906 -171.578125 -463.027344 -217.652344 -463.027344 C -242.332031 -463.027344 -263.828125 -458.585938 -282.136719 -449.699219 C -300.230469 -440.921875 -314.015625 -430.296875 -323.484375 -417.835938 C -353.730469 -378.691406 -368.851562 -321.730469 -368.851562 -246.949219 L -368.851562 -210.78125 L -456.753906 -201.015625 L -456.753906 -245.902344 C -456.753906 -271.296875 -464.996094 -292.96875 -481.476562 -310.929688 C -497.070312 -327.917969 -523.535156 -336.414062 -560.867188 -336.414062 C -595.347656 -336.414062 -620.207031 -328.046875 -635.445312 -311.308594 C -651.648438 -293.507812 -659.75 -264.378906 -659.75 -223.929688 L -659.75 -210.324219 L -698.992188 -210.324219 Z M -738.234375 -171.085938 L -738.234375 -223.929688 C -738.234375 -284.628906 -723.316406 -331.367188 -693.480469 -364.140625 C -662.675781 -397.980469 -618.472656 -414.898438 -560.867188 -414.898438 C -500.539062 -414.898438 -454.800781 -397.929688 -423.65625 -363.996094 C -393.398438 -331.03125 -378.269531 -291.667969 -378.269531 -245.902344 L -378.269531 -244.855469 L -417.511719 -244.855469 L -421.847656 -283.859375 L -412.429688 -284.90625 L -408.09375 -245.902344 L -447.335938 -245.902344 L -447.335938 -246.949219 C -447.335938 -339.589844 -426.882812 -412.382812 -385.972656 -465.324219 C -368.933594 -487.742188 -345.746094 -506.070312 -316.402344 -520.308594 C -287.273438 -534.445312 -254.359375 -541.511719 -217.652344 -541.511719 C -149.316406 -541.511719 -93.328125 -518.84375 -49.683594 -473.503906 C -6.445312 -428.582031 15.175781 -367.367188 15.175781 -289.851562 C 15.175781 -257.882812 13.28125 -229.417969 9.5 -204.445312 L 4.445312 -171.085938 Z M -738.234375 -171.085938 "/></g></g></g><g fill="#3d3f3f" fill-opacity="1"><g transform="translate(1023.492746, 625.106915)"><g><path d="M -456.21875 -414.375 C -442.96875 -401.8125 -433.203125 -387.507812 -426.921875 -371.46875 C -417.160156 -439.832031 -392.921875 -491.800781 -354.203125 -527.375 C -315.484375 -562.957031 -268.222656 -580.75 -212.421875 -580.75 C -144.753906 -580.75 -89.988281 -553.539062 -48.125 -499.125 C -6.269531 -444.71875 14.65625 -373.21875 14.65625 -284.625 C 14.65625 -196.03125 -7.144531 -126.617188 -50.75 -76.390625 C -94.351562 -26.160156 -155.914062 -1.046875 -235.4375 -1.046875 C -239.625 -1.046875 -243.8125 -1.046875 -248 -1.046875 L -250.09375 -12.5625 C -146.144531 -26.507812 -78.828125 -69.757812 -48.140625 -142.3125 L -657.140625 -142.3125 C -675.972656 -140.914062 -691.492188 -133.765625 -703.703125 -120.859375 C -715.910156 -107.953125 -722.015625 -92.429688 -722.015625 -74.296875 L -722.015625 -61.734375 L -732.46875 -61.734375 L -732.46875 -237.53125 C -732.46875 -303.101562 -717.46875 -355.597656 -687.46875 -395.015625 C -657.476562 -434.429688 -618.238281 -454.140625 -569.75 -454.140625 C -521.269531 -454.140625 -483.425781 -440.882812 -456.21875 -414.375 Z M -698.984375 -210.328125 L -29.296875 -210.328125 C -25.804688 -233.347656 -24.0625 -259.851562 -24.0625 -289.84375 C -24.0625 -356.8125 -42.023438 -408.957031 -77.953125 -446.28125 C -113.878906 -483.601562 -160.445312 -502.265625 -217.65625 -502.265625 C -248.34375 -502.265625 -275.546875 -496.507812 -299.265625 -485 C -322.984375 -473.488281 -341.46875 -459.015625 -354.71875 -441.578125 C -390.300781 -395.535156 -408.09375 -330.660156 -408.09375 -246.953125 C -408.09375 -246.253906 -408.09375 -245.90625 -408.09375 -245.90625 L -417.515625 -244.859375 C -417.515625 -245.554688 -417.515625 -245.90625 -417.515625 -245.90625 C -417.515625 -281.476562 -429.195312 -311.992188 -452.5625 -337.453125 C -475.9375 -362.921875 -512.035156 -375.65625 -560.859375 -375.65625 C -652.941406 -375.65625 -698.984375 -325.078125 -698.984375 -223.921875 Z M -698.984375 -210.328125 "/></g></g></g></g></g></g></g></g><g clip-path="url(#f20221f151)"><g clip-path="url(#46d32b7061)"><g transform="matrix(1, 0, 0, 1, 367, 494)"><g clip-path="url(#25f2864eac)"><g clip-path="url(#493e82207a)"><g clip-path="url(#14837fbe66)"><path fill="#ebf3f2" d="M 0.21875 0.53125 L 356.175781 0.53125 L 356.175781 380.125 L 0.21875 380.125 Z M 0.21875 0.53125 " fill-opacity="1" fill-rule="nonzero"/></g></g></g></g></g></g></svg>